<svg width="64" height="65" viewBox="0 0 64 65" fill="none" xmlns="http://www.w3.org/2000/svg">
<path d="M40.053 6.51058C34.7196 5.68821 29.2797 5.68821 23.9464 6.51058C21.7597 6.85544 20.1597 8.7124 20.1597 10.8877V20.65H10.3463C8.15967 20.65 6.29302 22.2418 5.94635 24.4171C5.11969 29.7227 5.11969 35.1344 5.94635 40.44C6.29302 42.6153 8.15967 44.207 10.3463 44.207H14.8263C15.573 44.207 16.1597 43.6234 16.1597 42.8806V38.3178C16.1597 32.8795 20.613 28.4493 26.0797 28.4493H37.9197C38.9863 28.4493 39.8397 27.6004 39.8397 26.5393V17.9972C39.8397 17.2544 40.4263 16.6708 41.173 16.6708H42.5063C43.253 16.6708 43.8397 16.0872 43.8397 15.3444V10.8877C43.8397 8.7124 42.2396 6.85544 40.053 6.51058ZM27.5463 15.3974C26.453 15.3974 25.413 14.3629 25.413 13.2752C25.413 12.161 26.453 11.1264 27.5463 11.1264C28.0796 11.1264 28.6664 11.3652 29.0397 11.7366C29.4397 12.108 29.7064 12.7181 29.7064 13.2752C29.7064 14.3629 28.6663 15.3974 27.5463 15.3974Z" fill="#647B64"/>
<path d="M58.0528 24.4171C57.7061 22.2417 55.8395 20.65 53.6528 20.65H45.1728C44.4262 20.65 43.8395 21.2336 43.8395 21.9764V26.5393C43.8395 29.7757 41.1995 32.4285 37.9195 32.4285H26.0795C22.7995 32.4285 20.1595 35.0548 20.1595 38.3178V53.9694C20.1595 56.1447 21.7595 58.0016 23.9462 58.3465C29.2795 59.1689 34.7195 59.1689 40.0528 58.3465C42.2395 58.0016 43.8395 56.1447 43.8395 53.9694V44.207H53.6528C55.8395 44.207 57.7061 42.6153 58.0528 40.44C58.8795 35.1344 58.8795 29.7227 58.0528 24.4171ZM36.4529 53.7306C35.3595 53.7306 34.2928 52.696 34.2928 51.5818C34.2928 50.4677 35.3329 49.4331 36.4529 49.4331C36.9595 49.4331 37.5729 49.6718 37.9462 50.0167C38.3462 50.3881 38.6129 51.0247 38.6129 51.5553C38.5862 52.696 37.5462 53.7306 36.4529 53.7306Z" ill="#647B64"/>
</svg>
