<svg width="54" height="54" viewBox="0 0 54 54" currentcolor="none" xmlns="http://www.w3.org/2000/svg">
<path d="M35.053 1.51058C29.7196 0.688206 24.2797 0.688206 18.9464 1.51058C16.7597 1.85544 15.1597 3.7124 15.1597 5.8877V15.65H5.34634C3.15967 15.65 1.29302 17.2418 0.946355 19.4171C0.119688 24.7227 0.119688 30.1344 0.946355 35.44C1.29302 37.6153 3.15967 39.207 5.34634 39.207H9.82632C10.573 39.207 11.1597 38.6234 11.1597 37.8806V33.3178C11.1597 27.8795 15.613 23.4493 21.0797 23.4493H32.9197C33.9863 23.4493 34.8397 22.6004 34.8397 21.5393V12.9972C34.8397 12.2544 35.4263 11.6708 36.173 11.6708H37.5063C38.253 11.6708 38.8397 11.0872 38.8397 10.3444V5.8877C38.8397 3.7124 37.2396 1.85544 35.053 1.51058ZM22.5463 10.3974C21.453 10.3974 20.413 9.36287 20.413 8.27522C20.413 7.16104 21.453 6.12645 22.5463 6.12645C23.0796 6.12645 23.6664 6.36523 24.0397 6.73662C24.4397 7.10802 24.7064 7.71813 24.7064 8.27522C24.7064 9.36287 23.6663 10.3974 22.5463 10.3974Z" currentcolor="#647B64"/>
<path d="M53.0528 19.4171C52.7061 17.2417 50.8395 15.65 48.6528 15.65H40.1728C39.4262 15.65 38.8395 16.2336 38.8395 16.9764V21.5393C38.8395 24.7757 36.1995 27.4285 32.9195 27.4285H21.0795C17.7995 27.4285 15.1595 30.0548 15.1595 33.3178V48.9694C15.1595 51.1447 16.7595 53.0016 18.9462 53.3465C24.2795 54.1689 29.7195 54.1689 35.0528 53.3465C37.2395 53.0016 38.8395 51.1447 38.8395 48.9694V39.207H48.6528C50.8395 39.207 52.7061 37.6153 53.0528 35.44C53.8795 30.1344 53.8795 24.7227 53.0528 19.4171ZM31.4529 48.7306C30.3595 48.7306 29.2928 47.696 29.2928 46.5818C29.2928 45.4677 30.3329 44.4331 31.4529 44.4331C31.9595 44.4331 32.5729 44.6718 32.9462 45.0167C33.3462 45.3881 33.6129 46.0247 33.6129 46.5553C33.5862 47.696 32.5462 48.7306 31.4529 48.7306Z" currentcolor="#647B64"/>
</svg>
