<svg width="46" height="53" viewBox="0 0 46 53" currentcolor="none" xmlns="http://www.w3.org/2000/svg">
<path d="M43.0267 11.6259L25.6934 1.49214C24.0134 0.510604 21.9599 0.510604 20.2799 1.49214L2.94661 11.6259C1.31995 12.5809 0.306641 14.3317 0.306641 16.1887V36.6419C0.306641 38.5254 1.31995 40.2498 2.94661 41.2048L20.2799 51.3385C21.9599 52.32 24.0134 52.32 25.6934 51.3385L43.0267 41.2048C44.6534 40.2498 45.6667 38.4989 45.6667 36.6419V16.1887C45.6667 14.3317 44.6534 12.5809 43.0267 11.6259ZM37.3734 36.0848L24.04 44.0433C23.72 44.229 23.3733 44.3351 23 44.3351C22.6267 44.3351 22.28 44.229 21.96 44.0433L8.62663 36.0848C7.66663 35.5277 7.37327 34.3074 7.93327 33.3524C8.49327 32.3974 9.72001 32.1056 10.68 32.6627L22.9733 40.011L32.4134 34.3605L27.4533 31.3893L25.7201 33.1137C25.3201 33.5116 24.8133 33.6973 24.3066 33.6973C23.8 33.6973 23.2934 33.5116 22.8934 33.1137C22.1201 32.3444 22.1201 31.071 22.8934 30.3017L23.9067 29.2936L19.1066 26.4286L17.7201 27.8081C17.3201 28.206 16.8133 28.3917 16.3066 28.3917C15.8 28.3917 15.2934 28.206 14.8934 27.8081C14.1201 27.0387 14.1201 25.7654 14.8934 24.9961L15.5866 24.3063L8.62663 20.1414C8.01329 19.77 7.66667 19.1334 7.66667 18.4436C7.66667 17.7539 8.03996 17.0907 8.62663 16.7458L21.96 8.78738C22.6 8.41599 23.4 8.41599 24.0133 8.78738L37.3467 16.7458C38.3067 17.3029 38.6 18.5232 38.04 19.4782C37.48 20.4067 36.2533 20.725 35.2933 20.1679L23 12.8196L13.5601 18.4701L18.52 21.4413L20.2533 19.717C21.0266 18.9476 22.3067 18.9476 23.0801 19.717C23.8534 20.4863 23.8534 21.7596 23.0801 22.5289L22.0667 23.537L26.8667 26.4021L28.2533 25.0226C29.0266 24.2533 30.3067 24.2533 31.0801 25.0226C31.8534 25.7919 31.8534 27.0653 31.0801 27.8346L30.3867 28.5243L37.3467 32.6892C37.96 33.0606 38.3066 33.6973 38.3066 34.387C38.3066 35.0768 37.96 35.74 37.3734 36.0848Z" currentcolor="white"/>
</svg>
