<svg width="64" height="65" viewBox="0 0 64 65" fill="none" xmlns="http://www.w3.org/2000/svg">
<path d="M52.0267 17.6259L34.6934 7.49214C33.0134 6.5106 30.9599 6.5106 29.2799 7.49214L11.9466 17.6259C10.3199 18.5809 9.30664 20.3317 9.30664 22.1887V42.6419C9.30664 44.5254 10.3199 46.2498 11.9466 47.2048L29.2799 57.3385C30.9599 58.32 33.0134 58.32 34.6934 57.3385L52.0267 47.2048C53.6534 46.2498 54.6667 44.4989 54.6667 42.6419V22.1887C54.6667 20.3317 53.6534 18.5809 52.0267 17.6259ZM46.3734 42.0848L33.04 50.0433C32.72 50.229 32.3733 50.3351 32 50.3351C31.6267 50.3351 31.28 50.229 30.96 50.0433L17.6266 42.0848C16.6666 41.5277 16.3733 40.3074 16.9333 39.3524C17.4933 38.3974 18.72 38.1056 19.68 38.6627L31.9733 46.011L41.4134 40.3605L36.4533 37.3893L34.7201 39.1137C34.3201 39.5116 33.8133 39.6973 33.3066 39.6973C32.8 39.6973 32.2934 39.5116 31.8934 39.1137C31.1201 38.3444 31.1201 37.071 31.8934 36.3017L32.9067 35.2936L28.1066 32.4286L26.7201 33.8081C26.3201 34.206 25.8133 34.3917 25.3066 34.3917C24.8 34.3917 24.2934 34.206 23.8934 33.8081C23.1201 33.0387 23.1201 31.7654 23.8934 30.9961L24.5866 30.3063L17.6266 26.1414C17.0133 25.77 16.6667 25.1334 16.6667 24.4436C16.6667 23.7539 17.04 23.0907 17.6266 22.7458L30.96 14.7874C31.6 14.416 32.4 14.416 33.0133 14.7874L46.3467 22.7458C47.3067 23.3029 47.6 24.5232 47.04 25.4782C46.48 26.4067 45.2533 26.725 44.2933 26.1679L32 18.8196L22.5601 24.4701L27.52 27.4413L29.2533 25.717C30.0266 24.9476 31.3067 24.9476 32.0801 25.717C32.8534 26.4863 32.8534 27.7596 32.0801 28.5289L31.0667 29.537L35.8667 32.4021L37.2533 31.0226C38.0266 30.2533 39.3067 30.2533 40.0801 31.0226C40.8534 31.7919 40.8534 33.0653 40.0801 33.8346L39.3867 34.5243L46.3467 38.6892C46.96 39.0606 47.3066 39.6973 47.3066 40.387C47.3066 41.0768 46.96 41.74 46.3734 42.0848Z" fill="#647B64"/>
</svg>
