<svg width="54" height="54" viewBox="0 0 54 54" currentcolor="none" xmlns="http://www.w3.org/2000/svg">
<path d="M26.9998 0.900383C12.2798 0.900383 0.333138 12.785 0.333138 27.4285C0.333138 42.0721 12.2798 53.9567 26.9998 53.9567C41.7198 53.9567 53.6665 42.0721 53.6665 27.4285C53.6665 12.785 41.7198 0.900383 26.9998 0.900383ZM38.9998 33.3974H30.8665L36.1731 40.8783C36.8131 41.7803 36.5998 43.0271 35.6932 43.6372C35.3465 43.876 34.9464 44.0086 34.5464 44.0086C33.9064 44.0086 33.2931 43.7168 32.9198 43.1597L26.7865 34.5115L20.6531 43.1597C20.2531 43.7168 19.6398 44.0086 19.0265 44.0086C18.6265 44.0086 18.2264 43.9025 17.8798 43.6372C16.9731 43.0005 16.7598 41.7537 17.3998 40.8783L22.7065 33.3974H15.0531C13.9598 33.3974 13.0531 32.4954 13.0531 31.4077C13.0531 30.3201 13.9598 29.4181 15.0531 29.4181H39.0531C40.1464 29.4181 41.0531 30.3201 41.0531 31.4077C41.0531 32.4954 40.0931 33.3974 38.9998 33.3974ZM38.9998 25.4389H14.9998C13.9065 25.4389 12.9998 24.537 12.9998 23.4493C12.9998 22.3616 13.9065 21.4597 14.9998 21.4597H22.6531L17.3465 13.9787C16.7065 13.0768 16.9198 11.83 17.8265 11.2198C18.7331 10.5832 19.9865 10.7954 20.5998 11.6974L26.7331 20.3455L32.8665 11.6974C33.5065 10.7954 34.7598 10.5832 35.6398 11.2198C36.5464 11.8565 36.7598 13.1033 36.1198 13.9787L30.8131 21.4597H38.9465C40.0398 21.4597 40.9465 22.3616 40.9465 23.4493C40.9465 24.537 40.0931 25.4389 38.9998 25.4389Z" currentcolor="#647B64"/>
</svg>
