<svg width="64" height="65" viewBox="0 0 64 65" fill="none" xmlns="http://www.w3.org/2000/svg">
<path d="M31.9998 5.90038C17.2798 5.90038 5.33314 17.785 5.33314 32.4285C5.33314 47.0721 17.2798 58.9567 31.9998 58.9567C46.7198 58.9567 58.6665 47.0721 58.6665 32.4285C58.6665 17.785 46.7198 5.90038 31.9998 5.90038ZM43.9998 38.3974H35.8665L41.1731 45.8783C41.8131 46.7803 41.5998 48.0271 40.6932 48.6372C40.3465 48.876 39.9464 49.0086 39.5464 49.0086C38.9064 49.0086 38.2931 48.7168 37.9198 48.1597L31.7865 39.5115L25.6531 48.1597C25.2531 48.7168 24.6398 49.0086 24.0265 49.0086C23.6265 49.0086 23.2264 48.9025 22.8798 48.6372C21.9731 48.0005 21.7598 46.7537 22.3998 45.8783L27.7065 38.3974H20.0531C18.9598 38.3974 18.0531 37.4954 18.0531 36.4077C18.0531 35.3201 18.9598 34.4181 20.0531 34.4181H44.0531C45.1464 34.4181 46.0531 35.3201 46.0531 36.4077C46.0531 37.4954 45.0931 38.3974 43.9998 38.3974ZM43.9998 30.4389H19.9998C18.9065 30.4389 17.9998 29.537 17.9998 28.4493C17.9998 27.3616 18.9065 26.4597 19.9998 26.4597H27.6531L22.3465 18.9787C21.7065 18.0768 21.9198 16.83 22.8265 16.2198C23.7331 15.5832 24.9865 15.7954 25.5998 16.6974L31.7331 25.3455L37.8665 16.6974C38.5065 15.7954 39.7598 15.5832 40.6398 16.2198C41.5464 16.8565 41.7598 18.1033 41.1198 18.9787L35.8131 26.4597H43.9465C45.0398 26.4597 45.9465 27.3616 45.9465 28.4493C45.9465 29.537 45.0931 30.4389 43.9998 30.4389Z" fill="#647B64"/>
</svg>
